<svg width="326" height="327" viewBox="0 0 326 327" fill="none" xmlns="http://www.w3.org/2000/svg">
<path opacity="0.02" d="M164.343 304.841C249.648 304.841 318.802 293.068 318.802 278.545C318.802 264.023 249.648 252.25 164.343 252.25C79.0378 252.25 9.88428 264.023 9.88428 278.545C9.88428 293.068 79.0378 304.841 164.343 304.841Z" fill="#000001"/>
<path d="M307.542 260.237H254.606V274.171H307.542V260.237Z" fill="#A5A5A5"/>
<path opacity="0.28" d="M295.969 246.604H243.033V260.537H295.969V246.604Z" fill="#A5A5A5"/>
<path d="M275.287 40.3569H99.9253V274.275H275.287V40.3569Z" fill="#E6E6E6"/>
<path opacity="0.08" d="M264.601 68.406H128.079V261.013H264.601V68.406Z" fill="#000001"/>
<path d="M255.871 58.2087H119.349V251.553H255.871V58.2087Z" fill="white"/>
<path opacity="0.08" d="M105.252 114.202C105.252 114.202 145.409 127.255 151.955 161.635L186.57 122.796C186.57 122.796 198.912 121.296 193.455 132.667C189.876 140.119 188.995 161.557 179.6 176.058C160.972 204.804 121.285 237.052 115.769 270.858L115.306 273.701L102.481 274.281L106.028 169.42L105.259 114.209L105.252 114.202Z" fill="#000001"/>
<path d="M154.498 22.5247H142.971V52.7449H154.498V22.5247Z" fill="#A5A5A5"/>
<path d="M232.458 22.5247H220.93V52.7449H232.458V22.5247Z" fill="#A5A5A5"/>
<path d="M239.636 112.383H210.531V141.489H239.636V112.383Z" fill="#FFD200"/>
<path d="M239.636 154.861H210.531V183.966H239.636V154.861Z" fill="#FFD200"/>
<path d="M239.636 197.345H210.531V226.451H239.636V197.345Z" fill="#FFD200"/>
<path opacity="0.08" d="M196.337 120.749H143.949V133.117H196.337V120.749Z" fill="#000001"/>
<path opacity="0.08" d="M196.337 163.233H143.949V175.601H196.337V163.233Z" fill="#000001"/>
<path opacity="0.08" d="M196.337 205.717H143.949V218.085H196.337V205.717Z" fill="#000001"/>
<path d="M222.951 137.12L215.786 127.94L218.368 125.925L222.847 131.663L231.388 119.79L234.048 121.707L222.951 137.12Z" fill="white"/>
<path d="M239.636 70.6423H210.531V99.7476H239.636V70.6423Z" fill="#FFD200"/>
<path opacity="0.08" d="M196.337 79.0073H143.949V91.3758H196.337V79.0073Z" fill="#000001"/>
<path d="M222.951 95.3792L215.786 86.1991L218.368 84.1844L222.847 89.922L231.388 78.0491L234.048 79.9659L222.951 95.3792Z" fill="white"/>
<path d="M222.951 178.965L215.786 169.785L218.368 167.771L222.847 173.508L231.388 161.642L234.048 163.552L222.951 178.965Z" fill="white"/>
<path d="M222.951 220.811L215.786 211.631L218.368 209.616L222.847 215.354L231.388 203.487L234.048 205.398L222.951 220.811Z" fill="white"/>
<path d="M21.5814 180.556C21.5814 180.556 15.3352 177.896 12.9685 183.706C10.6017 189.521 21.5814 192.318 21.5814 192.318V180.556Z" fill="#F4A28C"/>
<path d="M46.3172 99.5165L17.9365 99.7444L19.3796 279.488L47.7603 279.261L46.3172 99.5165Z" fill="#FFD200"/>
<path d="M17.9365 99.7475L31.7915 58.1238L46.3181 99.5193L17.9365 99.7475Z" fill="#F4A28C"/>
<path d="M25.4932 77.0448L38.3962 76.9405L31.7915 58.1238L25.4932 77.0448Z" fill="#24285B"/>
<path opacity="0.08" d="M32.6848 99.6261L18.0088 99.7439L19.4519 279.488L34.1279 279.37L32.6848 99.6261Z" fill="#000001"/>
<path opacity="0.08" d="M18.7388 191.34V209.329C18.7388 209.329 34.1586 211.05 47.1464 202.653V186.49L36.0103 184.344L18.7388 191.334V191.34Z" fill="#000001"/>
<path d="M74.9477 127.249C67.1889 144.057 43.9908 176.755 21.5815 180.55V192.312C21.5815 192.312 61.7578 190.232 97.0571 154.92C111.766 140.204 111.512 130.046 106.211 123.193C97.8264 112.357 80.6919 114.802 74.9477 127.242V127.249Z" fill="#84CDBE"/>
<path opacity="0.08" d="M74.9477 127.249C67.1889 144.057 43.9908 176.755 21.5815 180.55V192.312C21.5815 192.312 61.7578 190.232 97.0571 154.92C111.766 140.204 111.512 130.046 106.211 123.193C97.8264 112.357 80.6919 114.802 74.9477 127.242V127.249Z" fill="#000001"/>
<path d="M93.5362 99.8322L97.709 112.364L87.792 118.662L84.2256 96.9438L93.5362 99.8322Z" fill="#F4A28C"/>
<path d="M87.2901 84.0865C91.2217 80.0636 98.0416 81.6741 100.069 86.9292C102.293 92.6864 104.314 101.247 97.5135 102.701C87.1076 104.931 83.7954 91.5519 83.7954 91.5519C83.7954 91.5519 84.304 87.1444 87.2836 84.093L87.2901 84.0865Z" fill="#F4A28C"/>
<path d="M87.2637 92.5167C87.2637 92.5167 85.0077 90.6259 83.9841 93.3122C82.9605 95.9919 86.9507 97.2894 88.1439 95.9332C89.337 94.577 87.2702 92.5167 87.2702 92.5167H87.2637Z" fill="#F4A28C"/>
<path d="M76.2189 124.817C79.2116 118.088 85.0666 113.055 92.1212 110.936C105.598 106.887 130.407 111.314 137.976 123.924C148.33 141.182 133.171 196.002 133.171 196.002L87.8832 199.517C87.8832 199.517 62.9703 154.587 76.2189 124.817Z" fill="#84CDBE"/>
<path d="M133.165 195.996L127.206 273.857H117.791L109.386 213.365L88.5615 199.516L133.165 195.996Z" fill="#24285B"/>
<path d="M88.5613 199.517L75.5669 273.858H85.6664L107.469 212.094L88.5613 199.517Z" fill="#24285B"/>
<path opacity="0.08" d="M96.0333 109.749C96.0333 109.749 74.8499 177.974 136.021 182.499L133.165 195.996L87.8768 199.51C87.8768 199.51 70.1946 168.683 72.5939 139.259C72.5939 139.259 72.9786 121.857 85.2297 114.163C85.2297 114.163 89.9045 110.721 96.0268 109.743L96.0333 109.749Z" fill="#000001"/>
<path d="M77.9336 273.695L71.8505 278.174C70.8138 278.937 71.355 280.586 72.6459 280.586H82.8367C83.5734 280.586 84.1733 279.986 84.1733 279.25V273.695H77.9336Z" fill="#84CDBE"/>
<path d="M126.032 273.695L131.756 278.174C132.767 278.963 132.206 280.593 130.922 280.593H123.665C121.526 280.593 119.792 278.858 119.792 276.72V273.701H126.032V273.695Z" fill="#84CDBE"/>
<path d="M114.498 110.571C114.498 110.571 106.72 121.602 114.498 134.727C119.44 143.066 133.804 159.295 143.629 170.02C148.415 175.242 156.898 174.251 160.347 168.07L181.452 130.867L174.293 126.277L154.955 154.633C154.955 154.633 141.719 111.118 114.505 110.577L114.498 110.571Z" fill="#84CDBE"/>
<path opacity="0.2" d="M114.498 110.571C114.498 110.571 106.72 121.602 114.498 134.727C119.44 143.066 133.804 159.295 143.629 170.02C148.415 175.242 156.898 174.251 160.347 168.07L181.452 130.867L174.293 126.277L154.955 154.633C154.955 154.633 141.719 111.118 114.505 110.577L114.498 110.571Z" fill="white"/>
<path d="M178.954 129.27C178.954 129.27 190.938 124.869 186.048 118.095C181.158 111.32 174.286 126.284 174.286 126.284L178.954 129.276V129.27Z" fill="#F4A28C"/>
<path d="M85.0078 100.53L81.3957 91.5714C80.6394 89.6936 80.6981 87.5942 81.5457 85.7556C83.0257 82.5412 85.8424 77.599 90.1391 74.7824C96.8807 70.3553 103.485 70.3227 102.742 76.2103C101.999 82.0978 104.842 75.9038 107.124 80.1158C109.406 84.3277 108.03 85.6969 104.705 86.0946C101.373 86.4923 94.8595 86.3684 92.5384 90.6521C90.2173 94.9357 93.0079 100.269 85.0078 100.536V100.53Z" fill="#24285B"/>
<path d="M47.6087 248.214L18.8955 248.445L19.1545 280.705L47.8677 280.474L47.6087 248.214Z" fill="#24285B"/>
</svg>
